<?xml version="1.0" encoding="UTF-8"?>
<!DOCTYPE svg PUBLIC "-//W3C//DTD SVG 1.1//EN" "http://www.w3.org/Graphics/SVG/1.1/DTD/svg11.dtd">
<!-- Creator: CorelDRAW -->
<svg xmlns="http://www.w3.org/2000/svg" xml:space="preserve" width="0.233331in" height="0.233331in" version="1.1" style="shape-rendering:geometricPrecision; text-rendering:geometricPrecision; image-rendering:optimizeQuality; fill-rule:evenodd; clip-rule:evenodd"
viewBox="0 0 233.33 233.33"
 xmlns:xlink="http://www.w3.org/1999/xlink"
 xmlns:xodm="http://www.corel.com/coreldraw/odm/2003">
 <defs>
  <style type="text/css">
   <![CDATA[
    .fil0 {fill:#5240E4}
   ]]>
  </style>
 </defs>
 <g id="Layer_x0020_1">
  <metadata id="CorelCorpID_0Corel-Layer"/>
  <path class="fil0" d="M74.9 62.28c-1.87,0 -13.15,6.12 -15.44,7.26l-7.41 3.93c-3.7,1.99 -6.21,2.27 -6.21,6.96 0,1.75 3.35,4.09 4.54,5l27.7 21.79c1.8,1.41 9.26,8.06 11.35,8.62l0 0.91c-4.96,1.16 -27.35,13.62 -29.5,13.62 -5.23,0 -28.69,-10.9 -34.5,-10.9 -2.15,0 -17,9.71 -19.79,11.54 -1.8,1.18 -4.46,2.81 -5.18,4.84l0 2.09c0.29,0.81 0.94,1.69 2.09,2.6 4.72,3.78 36.13,24.7 39.7,26.57 10.27,5.37 25.15,5.78 35.91,1.46l33.82 -15.65c2.09,-1.05 5.15,-1.98 5.15,-4.85 0,-3.2 -1.88,-5.2 -4.54,-5.25 -3.07,-0.05 -16.68,7.41 -20.69,9.07 -2.57,1.06 -4.12,2.07 -6.81,3.18 -8.05,3.32 -13.93,7.08 -23.34,7.08 -15.13,0 -25.2,-10.05 -36.77,-17.71 -2.63,-1.74 -9.18,-5.38 -10.89,-7.71 13.97,-7.4 7.38,-8.97 21.51,-4.26 3.45,1.15 22.43,7.89 24.34,7.89 2.26,0 9.18,-3.67 11.5,-4.84 3.88,-1.95 7.45,-3.51 11.34,-5.45l16.71 -7.8c6.78,-3.01 3.98,-6.98 -0.2,-10.36 -2.81,-2.26 -37.74,-30.46 -39.81,-31.01l0 -0.91c5.44,-1.27 10.13,-5.97 15.41,-7.73 2.15,-0.72 45.85,14.19 54.21,16.65 2.11,0.62 3.92,1.33 5.79,1.93 24.93,7.91 14.55,6.74 33.15,-0.79l28.07 -13.24c2.37,-1.17 4.62,-2.07 7.11,-3.33 4.23,-2.14 7.95,-3.34 12.7,-1.5 9.85,3.83 9.53,16.94 0.77,21.78 -3.73,2.06 -7.72,3.41 -11.51,5.29l-51.28 24.07c-1.93,0.95 -4.02,1.74 -5.93,2.7 -5.21,2.61 -3.01,9.09 1.83,9.09 1.15,0 4.93,-1.78 5.91,-2.27l28.75 -13.46c2.07,-1.05 3.45,-1.59 5.6,-2.57l28.75 -13.47c7.85,-3.96 14.07,-9.87 14.07,-19.98 0,-10.72 -9.13,-21.33 -19.97,-21.33 -8.86,0 -11.22,1.7 -20.43,6.36l-38.84 18.26c-1.35,0.31 -6.88,-1.81 -8.76,-2.43 -6.17,-2.07 -67.02,-21.73 -69.97,-21.73l-0.01 -0.01zm51.31 76.49c0,6.78 9.54,5.89 9.54,0.91 0,-7.92 -9.54,-6.05 -9.54,-0.91z"/>
 </g>
</svg>
