<?xml version="1.0" encoding="UTF-8"?>
<!DOCTYPE svg PUBLIC "-//W3C//DTD SVG 1.1//EN" "http://www.w3.org/Graphics/SVG/1.1/DTD/svg11.dtd">
<!-- Creator: CorelDRAW -->
<svg xmlns="http://www.w3.org/2000/svg" xml:space="preserve" width="0.233331in" height="0.233331in" version="1.1" style="shape-rendering:geometricPrecision; text-rendering:geometricPrecision; image-rendering:optimizeQuality; fill-rule:evenodd; clip-rule:evenodd"
viewBox="0 0 233.33 233.33"
 xmlns:xlink="http://www.w3.org/1999/xlink"
 xmlns:xodm="http://www.corel.com/coreldraw/odm/2003">
 <defs>
  <style type="text/css">
   <![CDATA[
    .fil0 {fill:#5240E4}
   ]]>
  </style>
 </defs>
 <g id="Layer_x0020_1">
  <metadata id="CorelCorpID_0Corel-Layer"/>
  <path class="fil0" d="M88.57 108.02l-31.26 -8.23c-3.38,-0.94 -2.54,-1.02 -4.22,-3.87 -1.14,-1.93 -2.01,-3.19 -3.09,-5 -2.44,-4.11 -13.44,-23.22 -15.74,-24.25 -1.39,-0.62 -25.04,-4.34 -27.55,-4.34 -2.18,0 -4.28,2.28 -4.28,5.24 0,2.03 3.62,13.57 4.38,16.56 0.68,2.66 1.57,5.46 2.28,8.19 3.13,11.92 5.83,25.04 13.24,34.35 0.94,1.19 1.72,1.66 2.73,2.98 1.39,1.81 1.01,1.28 2.65,2.58 8.77,6.98 11.82,9.17 24.78,12.35l24.75 6.66c2.76,0.7 5.83,2 8.94,2 4.85,0 7.16,-7.89 -0.46,-10.01 -12.16,-3.38 -38.53,-9.14 -46.19,-14.26 -15.45,-10.33 -15.82,-21.87 -20.99,-39.45 -0.78,-2.64 -4.18,-14.2 -4.23,-16.24l13.54 2.17c2.18,0.63 4.99,6.26 6.84,9.34l12.07 19.81c1.08,1.71 1.8,2.92 3.92,3.7l31.59 8.39c5.16,1.42 17.71,6.54 17.71,-1.05 0,-2.73 -10.32,-52.39 -11.43,-57.11 2.48,0.58 17.74,3.67 19.13,5.14l9.42 14.85c1.1,1.66 1.94,3.16 3.15,4.94l31.86 50.48c2.24,3.29 11.96,4.52 17.99,6.28l38.66 10.36c4.85,1.37 8.05,2.3 10.37,6.29 5.29,9.14 -0.24,22.91 -16.66,18.09 -19.78,-5.81 -40.75,-10.57 -60.67,-16.43 -3.13,-0.92 -13.57,-4.47 -16.43,-3.25 -1.46,0.63 -3.03,2.5 -3.03,4.15 0,4.56 3.99,5.24 7.61,6.19 9.18,2.4 73.44,20.46 77.57,20.46 7.1,0 11.67,-1.4 16.54,-6.31 2.08,-2.1 3.16,-3 4.57,-5.89 3.69,-7.54 2.75,-16.4 -1.87,-23.22 -5.56,-8.22 -13.26,-8.85 -21.93,-11.39l-25.97 -6.87c-4.49,-1.15 -8.62,-2.3 -13.13,-3.53 -9.07,-2.47 -5.49,-1.18 -12.76,-11.99l-38.26 -60.73c-2.12,-3.25 -13.16,-4.62 -19.13,-6.1 -2.3,-0.57 -4.41,-1 -6.56,-1.52 -3.13,-0.77 -11.59,-3.79 -11.85,3.35l11.37 56.14 0.03 -0.01z"/>
 </g>
</svg>
